<svg xmlns="http://www.w3.org/2000/svg" viewBox="1005.626 660.09 150.588 36.677"><defs><style>.a{fill:none;}</style></defs><path class="a" d="M5.5,6.087A18.434,18.434,0,0,0,.482,18.836,17.2,17.2,0,0,0,5.955,32a18.776,18.776,0,0,0,12.8,5.127c2.759,0,4.885-.692,7.826-1.617V24.655a10.113,10.113,0,0,1-7.644,3.7c-5.519,0-9.227-3.973-9.227-9.47,0-5.4,3.664-9.654,9.09-9.654a10.085,10.085,0,0,1,3.621.681c1.42-2.609,2.756-5.2,4.152-7.706A20.463,20.463,0,0,0,18.484.451,18.294,18.294,0,0,0,5.5,6.088Zm46.736,4.25a9.221,9.221,0,0,0-5.88-2.31c-1.628,0-3.8.971-3.8,2.91,0,2.032,2.4,2.818,3.936,3.325l2.261.693c4.749,1.431,8.412,3.88,8.412,9.516,0,3.465-.814,7.021-3.528,9.377a14.758,14.758,0,0,1-9.68,3.28,20.735,20.735,0,0,1-11.985-3.973l3.8-7.3c2.217,1.986,4.839,3.6,7.869,3.6,2.08,0,4.3-1.061,4.3-3.511,0-2.54-3.483-3.418-5.382-3.973-5.564-1.617-9.227-3.1-9.227-9.839C33.331,5.07,38.261.451,45.091.451A22.945,22.945,0,0,1,55.766,3.315Zm30.118,0a9.22,9.22,0,0,0-5.88-2.31c-1.629,0-3.8.971-3.8,2.91,0,2.032,2.4,2.818,3.936,3.325l2.261.693c4.749,1.431,8.412,3.88,8.412,9.516,0,3.465-.814,7.021-3.528,9.377a14.759,14.759,0,0,1-9.68,3.28,20.737,20.737,0,0,1-11.985-3.973l3.8-7.3c2.217,1.986,4.84,3.6,7.87,3.6,2.08,0,4.3-1.061,4.3-3.511,0-2.54-3.483-3.418-5.382-3.973-5.564-1.617-9.227-3.1-9.227-9.839C63.449,5.07,68.38.451,75.21.451A22.943,22.943,0,0,1,85.884,3.315l-3.528,7.022Zm30.117,0a9.221,9.221,0,0,0-5.88-2.31c-1.628,0-3.8.971-3.8,2.91,0,2.032,2.4,2.818,3.936,3.325l2.262.693c4.749,1.431,8.412,3.88,8.412,9.516,0,3.465-.814,7.021-3.528,9.377a14.758,14.758,0,0,1-9.68,3.28A20.738,20.738,0,0,1,92.21,33.155l3.8-7.3c2.216,1.986,4.839,3.6,7.869,3.6,2.08,0,4.3-1.061,4.3-3.511,0-2.54-3.483-3.418-5.382-3.973-5.564-1.617-9.227-3.1-9.227-9.839C93.567,5.07,98.5.451,105.327.451A22.943,22.943,0,0,1,116,3.315ZM151.07,36.2h-9.879l-8.369-13.4h-.09V36.2h-8.865V1.374H137.12c6.739,0,11.85,3.28,11.85,10.717,0,4.8-2.623,8.961-7.462,9.838L151.07,36.2ZM132.731,16.988h.859c2.895,0,6.151-.554,6.151-4.342S136.485,8.3,133.591,8.3h-.86v8.683Z" transform="translate(1005.144 659.639)"/></svg>